.
..............................Site Info...........................

 -   http://www.scenetime.com  *_*    

Scenetime .Always on time . friendly online private torrent community ..

     We care to share . Join us on  http://www.scenetime.com 

    Be the first to get new release at  http://www.scenetime.com

        Seed back for speed


...................................NFO:.................................................Complete name                    : VTS_03_1.VOB
Format                           : MPEG-PS
File size                        : 1 024 MiB
Duration                         : 18mn 46s
Overall bit rate mode            : Variable
Overall bit rate                 : 7 621 Kbps

Video
ID                               : 224 (0xE0)
Format                           : MPEG Video
Format version                   : Version 2
Format profile                   : Main@Main
Format settings, BVOP            : Yes
Format settings, Matrix          : Custom
Format settings, GOP             : M=3, N=15
Duration                         : 18mn 46s
Bit rate mode                    : Variable
Bit rate                         : 5 934 Kbps
Maximum bit rate                 : 8 000 Kbps
Width                            : 720 pixels
Height                           : 480 pixels
Display aspect ratio             : 4:3
Frame rate                       : 29.970 fps
Standard                         : NTSC
Color space                      : YUV
Chroma subsampling               : 4:2:0
Bit depth                        : 8 bits
Scan type                        : Interlaced
Scan order                       : Bottom Field First
Compression mode                 : Lossy
Bits/(Pixel*Frame)               : 0.573
Stream size                      : 797 MiB (78%)
Color primaries                  : SMPTE 170M
Transfer characteristics         : SMPTE 170M
Matrix coefficients              : SMPTE 170M

Audio
ID                               : 189 (0xBD)-160 (0xA0)
Format                           : PCM
Format settings, Endianness      : Big
Format settings, Sign            : Signed
Muxing mode                      : DVD-Video
Duration                         : 18mn 46s
Bit rate mode                    : Constant
Bit rate                         : 1 536 Kbps
Channel(s)                       : 2 channels
Channel positions                : Front: L R
Sampling rate                    : 48.0 KHz
Bit depth                        : 16 bits
Stream size                      : 206 MiB (20%)